<mxfile host="app.diagrams.net" modified="2024-01-07T20:23:32.211Z" agent="Mozilla/5.0 (Windows NT 10.0; Win64; x64) AppleWebKit/537.36 (KHTML, like Gecko) Chrome/120.0.0.0 Safari/537.36" etag="4fptxO72AfWkfXKw8uu2" version="22.1.16" type="github">
  <diagram name="Page-1" id="PFG7HdQTAT1PnJoIeQVx">
    <mxGraphModel dx="1400" dy="696" grid="1" gridSize="10" guides="1" tooltips="1" connect="1" arrows="1" fold="1" page="1" pageScale="1" pageWidth="850" pageHeight="1100" math="0" shadow="0">
      <root>
        <mxCell id="0" />
        <mxCell id="1" parent="0" />
        <mxCell id="Spl-7D2hz3l7zZp3rgb0-5" value="&lt;font style=&quot;font-size: 15px;&quot;&gt;User&lt;/font&gt;" style="shape=umlLifeline;perimeter=lifelinePerimeter;whiteSpace=wrap;html=1;container=1;dropTarget=0;collapsible=0;recursiveResize=0;outlineConnect=0;portConstraint=eastwest;newEdgeStyle={&quot;curved&quot;:0,&quot;rounded&quot;:0};" vertex="1" parent="1">
          <mxGeometry x="30" y="80" width="100" height="500" as="geometry" />
        </mxCell>
        <mxCell id="Spl-7D2hz3l7zZp3rgb0-9" value="" style="html=1;points=[[0,0,0,0,5],[0,1,0,0,-5],[1,0,0,0,5],[1,1,0,0,-5]];perimeter=orthogonalPerimeter;outlineConnect=0;targetShapes=umlLifeline;portConstraint=eastwest;newEdgeStyle={&quot;curved&quot;:0,&quot;rounded&quot;:0};" vertex="1" parent="Spl-7D2hz3l7zZp3rgb0-5">
          <mxGeometry x="45" y="80" width="10" height="350" as="geometry" />
        </mxCell>
        <mxCell id="Spl-7D2hz3l7zZp3rgb0-6" value="&lt;font style=&quot;font-size: 15px;&quot;&gt;Sales analytics system&lt;/font&gt;" style="shape=umlLifeline;perimeter=lifelinePerimeter;whiteSpace=wrap;html=1;container=1;dropTarget=0;collapsible=0;recursiveResize=0;outlineConnect=0;portConstraint=eastwest;newEdgeStyle={&quot;curved&quot;:0,&quot;rounded&quot;:0};" vertex="1" parent="1">
          <mxGeometry x="240" y="80" width="220" height="520" as="geometry" />
        </mxCell>
        <mxCell id="Spl-7D2hz3l7zZp3rgb0-14" value="" style="html=1;points=[[0,0,0,0,5],[0,1,0,0,-5],[1,0,0,0,5],[1,1,0,0,-5]];perimeter=orthogonalPerimeter;outlineConnect=0;targetShapes=umlLifeline;portConstraint=eastwest;newEdgeStyle={&quot;curved&quot;:0,&quot;rounded&quot;:0};" vertex="1" parent="Spl-7D2hz3l7zZp3rgb0-6">
          <mxGeometry x="105" y="80" width="10" height="360" as="geometry" />
        </mxCell>
        <mxCell id="Spl-7D2hz3l7zZp3rgb0-7" value="&lt;font style=&quot;font-size: 15px;&quot;&gt;Database&lt;/font&gt;" style="shape=umlLifeline;perimeter=lifelinePerimeter;whiteSpace=wrap;html=1;container=1;dropTarget=0;collapsible=0;recursiveResize=0;outlineConnect=0;portConstraint=eastwest;newEdgeStyle={&quot;curved&quot;:0,&quot;rounded&quot;:0};" vertex="1" parent="1">
          <mxGeometry x="560" y="80" width="100" height="500" as="geometry" />
        </mxCell>
        <mxCell id="Spl-7D2hz3l7zZp3rgb0-17" value="" style="html=1;points=[[0,0,0,0,5],[0,1,0,0,-5],[1,0,0,0,5],[1,1,0,0,-5]];perimeter=orthogonalPerimeter;outlineConnect=0;targetShapes=umlLifeline;portConstraint=eastwest;newEdgeStyle={&quot;curved&quot;:0,&quot;rounded&quot;:0};" vertex="1" parent="Spl-7D2hz3l7zZp3rgb0-7">
          <mxGeometry x="45" y="200" width="10" height="260" as="geometry" />
        </mxCell>
        <mxCell id="Spl-7D2hz3l7zZp3rgb0-8" value="&lt;font style=&quot;font-size: 15px;&quot;&gt;Prediction Model&lt;/font&gt;" style="shape=umlLifeline;perimeter=lifelinePerimeter;whiteSpace=wrap;html=1;container=1;dropTarget=0;collapsible=0;recursiveResize=0;outlineConnect=0;portConstraint=eastwest;newEdgeStyle={&quot;curved&quot;:0,&quot;rounded&quot;:0};" vertex="1" parent="1">
          <mxGeometry x="780" y="80" width="100" height="460" as="geometry" />
        </mxCell>
        <mxCell id="Spl-7D2hz3l7zZp3rgb0-22" value="" style="html=1;points=[[0,0,0,0,5],[0,1,0,0,-5],[1,0,0,0,5],[1,1,0,0,-5]];perimeter=orthogonalPerimeter;outlineConnect=0;targetShapes=umlLifeline;portConstraint=eastwest;newEdgeStyle={&quot;curved&quot;:0,&quot;rounded&quot;:0};" vertex="1" parent="Spl-7D2hz3l7zZp3rgb0-8">
          <mxGeometry x="45" y="350" width="10" height="80" as="geometry" />
        </mxCell>
        <mxCell id="Spl-7D2hz3l7zZp3rgb0-15" value="&lt;font style=&quot;font-size: 15px;&quot;&gt;Login to system&lt;/font&gt;" style="html=1;verticalAlign=bottom;endArrow=block;curved=0;rounded=0;" edge="1" parent="1" source="Spl-7D2hz3l7zZp3rgb0-5">
          <mxGeometry width="80" relative="1" as="geometry">
            <mxPoint x="119.16666666666669" y="200" as="sourcePoint" />
            <mxPoint x="349.5" y="200" as="targetPoint" />
          </mxGeometry>
        </mxCell>
        <mxCell id="Spl-7D2hz3l7zZp3rgb0-16" value="&lt;font style=&quot;font-size: 15px;&quot;&gt;View sales&amp;nbsp;&lt;/font&gt;" style="html=1;verticalAlign=bottom;endArrow=block;curved=0;rounded=0;" edge="1" parent="1" source="Spl-7D2hz3l7zZp3rgb0-9">
          <mxGeometry width="80" relative="1" as="geometry">
            <mxPoint x="119.16666666666674" y="270" as="sourcePoint" />
            <mxPoint x="349.5" y="270" as="targetPoint" />
          </mxGeometry>
        </mxCell>
        <mxCell id="Spl-7D2hz3l7zZp3rgb0-18" value="&lt;font style=&quot;font-size: 15px;&quot;&gt;Retrieve sales data&lt;/font&gt;" style="html=1;verticalAlign=bottom;endArrow=none;curved=0;rounded=0;dashed=1;endFill=0;startArrow=block;startFill=1;" edge="1" parent="1">
          <mxGeometry width="80" relative="1" as="geometry">
            <mxPoint x="349.16666666666674" y="309.33" as="sourcePoint" />
            <mxPoint x="609.5" y="309.33" as="targetPoint" />
          </mxGeometry>
        </mxCell>
        <mxCell id="Spl-7D2hz3l7zZp3rgb0-19" value="&lt;font style=&quot;font-size: 15px;&quot;&gt;Input queries&lt;/font&gt;" style="html=1;verticalAlign=bottom;endArrow=block;curved=0;rounded=0;" edge="1" parent="1" source="Spl-7D2hz3l7zZp3rgb0-9">
          <mxGeometry width="80" relative="1" as="geometry">
            <mxPoint x="119.16666666666674" y="350" as="sourcePoint" />
            <mxPoint x="345" y="350" as="targetPoint" />
          </mxGeometry>
        </mxCell>
        <mxCell id="Spl-7D2hz3l7zZp3rgb0-20" value="ref" style="shape=umlFrame;whiteSpace=wrap;html=1;pointerEvents=0;" vertex="1" parent="1">
          <mxGeometry x="50" y="230" width="590" height="190" as="geometry" />
        </mxCell>
        <mxCell id="Spl-7D2hz3l7zZp3rgb0-23" value="&lt;font style=&quot;font-size: 15px;&quot;&gt;Return queried data and graphs&lt;/font&gt;" style="html=1;verticalAlign=bottom;endArrow=none;curved=0;rounded=0;startArrow=classic;startFill=1;endFill=0;dashed=1;" edge="1" parent="1" source="Spl-7D2hz3l7zZp3rgb0-9">
          <mxGeometry width="80" relative="1" as="geometry">
            <mxPoint x="119.16666666666674" y="400" as="sourcePoint" />
            <mxPoint x="345" y="400" as="targetPoint" />
          </mxGeometry>
        </mxCell>
        <mxCell id="Spl-7D2hz3l7zZp3rgb0-24" value="&lt;font style=&quot;font-size: 15px;&quot;&gt;Send sales data&lt;/font&gt;" style="html=1;verticalAlign=bottom;endArrow=block;curved=0;rounded=0;" edge="1" parent="1">
          <mxGeometry width="80" relative="1" as="geometry">
            <mxPoint x="615" y="450" as="sourcePoint" />
            <mxPoint x="829.5" y="450" as="targetPoint" />
          </mxGeometry>
        </mxCell>
        <mxCell id="Spl-7D2hz3l7zZp3rgb0-25" value="&lt;font style=&quot;font-size: 15px;&quot;&gt;Return predicted sales reports and graphs&lt;/font&gt;&amp;nbsp;" style="html=1;verticalAlign=bottom;endArrow=block;curved=0;rounded=0;dashed=1;" edge="1" parent="1">
          <mxGeometry width="80" relative="1" as="geometry">
            <mxPoint x="829.5" y="480" as="sourcePoint" />
            <mxPoint x="349.16666666666674" y="480" as="targetPoint" />
          </mxGeometry>
        </mxCell>
      </root>
    </mxGraphModel>
  </diagram>
</mxfile>
